<mxfile host="app.diagrams.net" modified="2021-02-09T16:25:51.375Z" agent="5.0 (X11)" etag="_JrzsebXexWWW3GNrjm5" version="14.2.2" type="github">
  <diagram id="OQl73W1y5MthcE245THd" name="Page-1">
    <mxGraphModel dx="645" dy="383" grid="1" gridSize="10" guides="1" tooltips="1" connect="1" arrows="1" fold="1" page="1" pageScale="1" pageWidth="827" pageHeight="1169" math="0" shadow="0">
      <root>
        <mxCell id="0" />
        <mxCell id="1" parent="0" />
        <mxCell id="_g5wlI9feMP86QzPln-b-1" value="&lt;div align=&quot;center&quot;&gt;r : road&lt;/div&gt;" style="html=1;align=center;verticalAlign=top;rounded=1;absoluteArcSize=1;arcSize=10;dashed=0;" vertex="1" parent="1">
          <mxGeometry x="80" y="130" width="58.25" height="56.88" as="geometry" />
        </mxCell>
        <mxCell id="_g5wlI9feMP86QzPln-b-2" value="" style="rounded=0;orthogonalLoop=1;jettySize=auto;html=1;endArrow=none;endFill=0;exitX=1;exitY=0.5;exitDx=0;exitDy=0;entryX=0.2;entryY=0.6;entryDx=0;entryDy=0;entryPerimeter=0;" edge="1" parent="1" source="_g5wlI9feMP86QzPln-b-21" target="_g5wlI9feMP86QzPln-b-4">
          <mxGeometry relative="1" as="geometry">
            <mxPoint x="273.25" y="275" as="sourcePoint" />
            <mxPoint x="163.25" y="-25" as="targetPoint" />
            <Array as="points">
              <mxPoint x="158.25" y="160" />
              <mxPoint x="158.25" y="91" />
            </Array>
          </mxGeometry>
        </mxCell>
        <mxCell id="_g5wlI9feMP86QzPln-b-3" value="" style="rounded=0;orthogonalLoop=1;jettySize=auto;html=1;endArrow=halfCircle;endFill=0;endSize=6;strokeWidth=1;exitX=0;exitY=0.5;exitDx=0;exitDy=0;entryX=0.5;entryY=0.5;entryDx=0;entryDy=0;entryPerimeter=0;" edge="1" parent="1" source="_g5wlI9feMP86QzPln-b-6" target="_g5wlI9feMP86QzPln-b-4">
          <mxGeometry relative="1" as="geometry">
            <mxPoint x="423.25" y="260" as="sourcePoint" />
            <mxPoint x="193.25" y="80" as="targetPoint" />
          </mxGeometry>
        </mxCell>
        <mxCell id="_g5wlI9feMP86QzPln-b-4" value="" style="ellipse;whiteSpace=wrap;html=1;fontFamily=Helvetica;fontSize=12;fontColor=#000000;align=center;strokeColor=#000000;fillColor=#ffffff;points=[];aspect=fixed;resizable=0;" vertex="1" parent="1">
          <mxGeometry x="183.25" y="85" width="10" height="10" as="geometry" />
        </mxCell>
        <mxCell id="_g5wlI9feMP86QzPln-b-5" value="v3 :&amp;nbsp; vehicle" style="html=1;align=center;verticalAlign=top;rounded=1;absoluteArcSize=1;arcSize=10;dashed=0;" vertex="1" parent="1">
          <mxGeometry x="213.25" y="60" width="95" height="50" as="geometry" />
        </mxCell>
        <mxCell id="_g5wlI9feMP86QzPln-b-6" value="connV" style="html=1;" vertex="1" parent="1">
          <mxGeometry x="213.25" y="80" width="35" height="20" as="geometry" />
        </mxCell>
        <mxCell id="_g5wlI9feMP86QzPln-b-7" value="next" style="html=1;" vertex="1" parent="1">
          <mxGeometry x="278.25" y="80" width="30" height="20" as="geometry" />
        </mxCell>
        <mxCell id="_g5wlI9feMP86QzPln-b-8" value="connV" style="html=1;" vertex="1" parent="1">
          <mxGeometry x="213.25" y="210" width="50" height="20" as="geometry" />
        </mxCell>
        <mxCell id="_g5wlI9feMP86QzPln-b-9" value="&lt;div align=&quot;right&quot;&gt;&amp;nbsp; v4 : vehicle&lt;br&gt;&lt;/div&gt;" style="html=1;align=center;verticalAlign=top;rounded=1;absoluteArcSize=1;arcSize=10;dashed=0;" vertex="1" parent="1">
          <mxGeometry x="213.25" y="130" width="95" height="50" as="geometry" />
        </mxCell>
        <mxCell id="_g5wlI9feMP86QzPln-b-10" value="connV" style="html=1;" vertex="1" parent="1">
          <mxGeometry x="213.25" y="150" width="35" height="20" as="geometry" />
        </mxCell>
        <mxCell id="_g5wlI9feMP86QzPln-b-11" value="next" style="html=1;" vertex="1" parent="1">
          <mxGeometry x="278.25" y="150" width="30" height="20" as="geometry" />
        </mxCell>
        <mxCell id="_g5wlI9feMP86QzPln-b-12" value="" style="rounded=0;orthogonalLoop=1;jettySize=auto;html=1;endArrow=none;endFill=0;exitX=1;exitY=0.5;exitDx=0;exitDy=0;" edge="1" parent="1" source="_g5wlI9feMP86QzPln-b-21" target="_g5wlI9feMP86QzPln-b-14">
          <mxGeometry relative="1" as="geometry">
            <mxPoint x="193.25" y="145" as="sourcePoint" />
          </mxGeometry>
        </mxCell>
        <mxCell id="_g5wlI9feMP86QzPln-b-13" value="" style="rounded=0;orthogonalLoop=1;jettySize=auto;html=1;endArrow=halfCircle;endFill=0;entryX=0.5;entryY=0.5;entryDx=0;entryDy=0;endSize=6;strokeWidth=1;exitX=0;exitY=0.5;exitDx=0;exitDy=0;" edge="1" parent="1" source="_g5wlI9feMP86QzPln-b-10" target="_g5wlI9feMP86QzPln-b-14">
          <mxGeometry relative="1" as="geometry">
            <mxPoint x="3.25" y="225" as="sourcePoint" />
          </mxGeometry>
        </mxCell>
        <mxCell id="_g5wlI9feMP86QzPln-b-14" value="" style="ellipse;whiteSpace=wrap;html=1;fontFamily=Helvetica;fontSize=12;fontColor=#000000;align=center;strokeColor=#000000;fillColor=#ffffff;points=[];aspect=fixed;resizable=0;" vertex="1" parent="1">
          <mxGeometry x="183.25" y="155" width="10" height="10" as="geometry" />
        </mxCell>
        <mxCell id="_g5wlI9feMP86QzPln-b-15" value="v5 : vehicle" style="html=1;align=center;verticalAlign=top;rounded=1;absoluteArcSize=1;arcSize=10;dashed=0;" vertex="1" parent="1">
          <mxGeometry x="213.25" y="200" width="95" height="50" as="geometry" />
        </mxCell>
        <mxCell id="_g5wlI9feMP86QzPln-b-16" value="connV" style="html=1;" vertex="1" parent="1">
          <mxGeometry x="213.25" y="220" width="35" height="20" as="geometry" />
        </mxCell>
        <mxCell id="_g5wlI9feMP86QzPln-b-17" value="docks" style="html=1;" vertex="1" parent="1">
          <mxGeometry x="278.25" y="220" width="30" height="20" as="geometry" />
        </mxCell>
        <mxCell id="_g5wlI9feMP86QzPln-b-18" value="" style="rounded=0;orthogonalLoop=1;jettySize=auto;html=1;endArrow=none;endFill=0;exitX=1;exitY=0.5;exitDx=0;exitDy=0;entryX=0.2;entryY=0.6;entryDx=0;entryDy=0;entryPerimeter=0;" edge="1" parent="1" source="_g5wlI9feMP86QzPln-b-21" target="_g5wlI9feMP86QzPln-b-19">
          <mxGeometry relative="1" as="geometry">
            <mxPoint x="136.25" y="279" as="sourcePoint" />
            <mxPoint x="168.25" y="230" as="targetPoint" />
            <Array as="points">
              <mxPoint x="158.25" y="160" />
              <mxPoint x="158.25" y="231" />
            </Array>
          </mxGeometry>
        </mxCell>
        <mxCell id="_g5wlI9feMP86QzPln-b-19" value="" style="ellipse;whiteSpace=wrap;html=1;fontFamily=Helvetica;fontSize=12;fontColor=#000000;align=center;strokeColor=#000000;fillColor=#ffffff;points=[];aspect=fixed;resizable=0;" vertex="1" parent="1">
          <mxGeometry x="183.25" y="225" width="10" height="10" as="geometry" />
        </mxCell>
        <mxCell id="_g5wlI9feMP86QzPln-b-20" value="" style="rounded=0;orthogonalLoop=1;jettySize=auto;html=1;endArrow=halfCircle;endFill=0;endSize=6;strokeWidth=1;exitX=0;exitY=0.5;exitDx=0;exitDy=0;" edge="1" parent="1" source="_g5wlI9feMP86QzPln-b-16" target="_g5wlI9feMP86QzPln-b-19">
          <mxGeometry relative="1" as="geometry">
            <mxPoint x="213.25" y="230" as="sourcePoint" />
            <mxPoint x="188.25" y="230" as="targetPoint" />
            <Array as="points" />
          </mxGeometry>
        </mxCell>
        <mxCell id="_g5wlI9feMP86QzPln-b-21" value="moving" style="html=1;" vertex="1" parent="1">
          <mxGeometry x="98.25" y="150" width="40" height="20" as="geometry" />
        </mxCell>
        <mxCell id="_g5wlI9feMP86QzPln-b-23" value="next" style="html=1;" vertex="1" parent="1">
          <mxGeometry x="278.25" y="220" width="30" height="20" as="geometry" />
        </mxCell>
        <mxCell id="_g5wlI9feMP86QzPln-b-25" value="p2 : platoon" style="html=1;align=left;verticalAlign=top;rounded=1;absoluteArcSize=1;arcSize=10;dashed=0;" vertex="1" parent="1">
          <mxGeometry x="213.25" y="370" width="286.75" height="80" as="geometry" />
        </mxCell>
        <mxCell id="_g5wlI9feMP86QzPln-b-26" value="connV" style="html=1;" vertex="1" parent="1">
          <mxGeometry x="288.25" y="395" width="50" height="20" as="geometry" />
        </mxCell>
        <mxCell id="_g5wlI9feMP86QzPln-b-27" value="" style="rounded=0;orthogonalLoop=1;jettySize=auto;html=1;endArrow=halfCircle;endFill=0;entryX=0.5;entryY=0.5;entryDx=0;entryDy=0;endSize=6;strokeWidth=1;exitX=0;exitY=0.5;exitDx=0;exitDy=0;" edge="1" parent="1" target="_g5wlI9feMP86QzPln-b-28">
          <mxGeometry relative="1" as="geometry">
            <mxPoint x="213.2499999999999" y="415" as="sourcePoint" />
          </mxGeometry>
        </mxCell>
        <mxCell id="_g5wlI9feMP86QzPln-b-28" value="" style="ellipse;whiteSpace=wrap;html=1;fontFamily=Helvetica;fontSize=12;fontColor=#000000;align=center;strokeColor=#000000;fillColor=#ffffff;points=[];aspect=fixed;resizable=0;" vertex="1" parent="1">
          <mxGeometry x="183.25" y="410" width="10" height="10" as="geometry" />
        </mxCell>
        <mxCell id="_g5wlI9feMP86QzPln-b-29" value="v3 : vehicle" style="html=1;align=center;verticalAlign=top;rounded=1;absoluteArcSize=1;arcSize=10;dashed=0;" vertex="1" parent="1">
          <mxGeometry x="287.75" y="385" width="82.25" height="50" as="geometry" />
        </mxCell>
        <mxCell id="_g5wlI9feMP86QzPln-b-30" value="connV" style="html=1;" vertex="1" parent="1">
          <mxGeometry x="288.25" y="405" width="35" height="20" as="geometry" />
        </mxCell>
        <mxCell id="_g5wlI9feMP86QzPln-b-31" value="v2 : vehicle" style="html=1;align=center;verticalAlign=top;rounded=1;absoluteArcSize=1;arcSize=10;dashed=0;" vertex="1" parent="1">
          <mxGeometry x="410" y="385" width="90" height="50" as="geometry" />
        </mxCell>
        <mxCell id="_g5wlI9feMP86QzPln-b-32" value="connV" style="html=1;" vertex="1" parent="1">
          <mxGeometry x="410.75" y="405" width="35" height="20" as="geometry" />
        </mxCell>
        <mxCell id="_g5wlI9feMP86QzPln-b-33" value="" style="rounded=0;orthogonalLoop=1;jettySize=auto;html=1;endArrow=none;endFill=0;exitX=1;exitY=0.5;exitDx=0;exitDy=0;" edge="1" parent="1" target="_g5wlI9feMP86QzPln-b-35">
          <mxGeometry relative="1" as="geometry">
            <mxPoint x="370" y="415" as="sourcePoint" />
          </mxGeometry>
        </mxCell>
        <mxCell id="_g5wlI9feMP86QzPln-b-34" value="" style="rounded=0;orthogonalLoop=1;jettySize=auto;html=1;endArrow=halfCircle;endFill=0;endSize=6;strokeWidth=1;" edge="1" parent="1" target="_g5wlI9feMP86QzPln-b-35">
          <mxGeometry relative="1" as="geometry">
            <mxPoint x="409.9999999999999" y="415" as="sourcePoint" />
            <mxPoint x="422.5" y="415" as="targetPoint" />
          </mxGeometry>
        </mxCell>
        <mxCell id="_g5wlI9feMP86QzPln-b-35" value="" style="ellipse;whiteSpace=wrap;html=1;fontFamily=Helvetica;fontSize=12;fontColor=#000000;align=center;strokeColor=#000000;fillColor=#ffffff;points=[];aspect=fixed;resizable=0;" vertex="1" parent="1">
          <mxGeometry x="382.5" y="410" width="10" height="10" as="geometry" />
        </mxCell>
        <mxCell id="_g5wlI9feMP86QzPln-b-36" value="leader" style="html=1;" vertex="1" parent="1">
          <mxGeometry x="213.25" y="405" width="35" height="20" as="geometry" />
        </mxCell>
        <mxCell id="_g5wlI9feMP86QzPln-b-37" value="" style="rounded=0;orthogonalLoop=1;jettySize=auto;html=1;endArrow=none;endFill=0;exitX=1;exitY=0.5;exitDx=0;exitDy=0;entryX=0;entryY=0.5;entryDx=0;entryDy=0;" edge="1" parent="1" source="_g5wlI9feMP86QzPln-b-36" target="_g5wlI9feMP86QzPln-b-30">
          <mxGeometry relative="1" as="geometry">
            <mxPoint x="258.25" y="415" as="sourcePoint" />
            <mxPoint x="287" y="415" as="targetPoint" />
            <Array as="points" />
          </mxGeometry>
        </mxCell>
        <mxCell id="_g5wlI9feMP86QzPln-b-38" value="" style="rounded=0;orthogonalLoop=1;jettySize=auto;html=1;endArrow=halfCircle;endFill=0;endSize=6;strokeWidth=1;" edge="1" parent="1">
          <mxGeometry relative="1" as="geometry">
            <mxPoint x="271.2499999999999" y="415" as="sourcePoint" />
            <mxPoint x="271.2499999999999" y="415" as="targetPoint" />
          </mxGeometry>
        </mxCell>
        <mxCell id="_g5wlI9feMP86QzPln-b-41" value="next" style="html=1;" vertex="1" parent="1">
          <mxGeometry x="340" y="405" width="30" height="20" as="geometry" />
        </mxCell>
        <mxCell id="_g5wlI9feMP86QzPln-b-42" value="next" style="html=1;" vertex="1" parent="1">
          <mxGeometry x="470" y="405" width="30" height="20" as="geometry" />
        </mxCell>
        <mxCell id="_g5wlI9feMP86QzPln-b-43" value="p1 : platoon" style="html=1;align=left;verticalAlign=top;rounded=1;absoluteArcSize=1;arcSize=10;dashed=0;" vertex="1" parent="1">
          <mxGeometry x="213.25" y="270" width="416.75" height="80" as="geometry" />
        </mxCell>
        <mxCell id="_g5wlI9feMP86QzPln-b-44" value="connV" style="html=1;" vertex="1" parent="1">
          <mxGeometry x="288.25" y="295" width="50" height="20" as="geometry" />
        </mxCell>
        <mxCell id="_g5wlI9feMP86QzPln-b-45" value="" style="rounded=0;orthogonalLoop=1;jettySize=auto;html=1;endArrow=halfCircle;endFill=0;entryX=0.5;entryY=0.5;entryDx=0;entryDy=0;endSize=6;strokeWidth=1;exitX=0;exitY=0.5;exitDx=0;exitDy=0;" edge="1" parent="1" target="_g5wlI9feMP86QzPln-b-46">
          <mxGeometry relative="1" as="geometry">
            <mxPoint x="213.2499999999999" y="315" as="sourcePoint" />
          </mxGeometry>
        </mxCell>
        <mxCell id="_g5wlI9feMP86QzPln-b-46" value="" style="ellipse;whiteSpace=wrap;html=1;fontFamily=Helvetica;fontSize=12;fontColor=#000000;align=center;strokeColor=#000000;fillColor=#ffffff;points=[];aspect=fixed;resizable=0;" vertex="1" parent="1">
          <mxGeometry x="183.25" y="310" width="10" height="10" as="geometry" />
        </mxCell>
        <mxCell id="_g5wlI9feMP86QzPln-b-47" value="v1.1 : vehicle" style="html=1;align=center;verticalAlign=top;rounded=1;absoluteArcSize=1;arcSize=10;dashed=0;" vertex="1" parent="1">
          <mxGeometry x="287.75" y="285" width="82.25" height="50" as="geometry" />
        </mxCell>
        <mxCell id="_g5wlI9feMP86QzPln-b-48" value="connV" style="html=1;" vertex="1" parent="1">
          <mxGeometry x="288.25" y="305" width="35" height="20" as="geometry" />
        </mxCell>
        <mxCell id="_g5wlI9feMP86QzPln-b-49" value="v1.2 : vehicle" style="html=1;align=center;verticalAlign=top;rounded=1;absoluteArcSize=1;arcSize=10;dashed=0;" vertex="1" parent="1">
          <mxGeometry x="408.25" y="285" width="90" height="50" as="geometry" />
        </mxCell>
        <mxCell id="_g5wlI9feMP86QzPln-b-50" value="connV" style="html=1;" vertex="1" parent="1">
          <mxGeometry x="408.25" y="305" width="35" height="20" as="geometry" />
        </mxCell>
        <mxCell id="_g5wlI9feMP86QzPln-b-51" value="" style="rounded=0;orthogonalLoop=1;jettySize=auto;html=1;endArrow=none;endFill=0;exitX=1;exitY=0.5;exitDx=0;exitDy=0;" edge="1" parent="1" source="_g5wlI9feMP86QzPln-b-59" target="_g5wlI9feMP86QzPln-b-53">
          <mxGeometry relative="1" as="geometry">
            <mxPoint x="383.25" y="315" as="sourcePoint" />
          </mxGeometry>
        </mxCell>
        <mxCell id="_g5wlI9feMP86QzPln-b-52" value="" style="rounded=0;orthogonalLoop=1;jettySize=auto;html=1;endArrow=halfCircle;endFill=0;endSize=6;strokeWidth=1;" edge="1" parent="1" target="_g5wlI9feMP86QzPln-b-53">
          <mxGeometry relative="1" as="geometry">
            <mxPoint x="408.2499999999999" y="315" as="sourcePoint" />
            <mxPoint x="420.75" y="315" as="targetPoint" />
          </mxGeometry>
        </mxCell>
        <mxCell id="_g5wlI9feMP86QzPln-b-53" value="" style="ellipse;whiteSpace=wrap;html=1;fontFamily=Helvetica;fontSize=12;fontColor=#000000;align=center;strokeColor=#000000;fillColor=#ffffff;points=[];aspect=fixed;resizable=0;" vertex="1" parent="1">
          <mxGeometry x="380.75" y="310" width="10" height="10" as="geometry" />
        </mxCell>
        <mxCell id="_g5wlI9feMP86QzPln-b-54" value="leader" style="html=1;" vertex="1" parent="1">
          <mxGeometry x="213.25" y="305" width="35" height="20" as="geometry" />
        </mxCell>
        <mxCell id="_g5wlI9feMP86QzPln-b-56" value="" style="rounded=0;orthogonalLoop=1;jettySize=auto;html=1;endArrow=halfCircle;endFill=0;endSize=6;strokeWidth=1;" edge="1" parent="1">
          <mxGeometry relative="1" as="geometry">
            <mxPoint x="271.2499999999999" y="315" as="sourcePoint" />
            <mxPoint x="271.2499999999999" y="315" as="targetPoint" />
          </mxGeometry>
        </mxCell>
        <mxCell id="_g5wlI9feMP86QzPln-b-59" value="next" style="html=1;" vertex="1" parent="1">
          <mxGeometry x="340" y="305" width="30" height="20" as="geometry" />
        </mxCell>
        <mxCell id="_g5wlI9feMP86QzPln-b-60" value="next" style="html=1;" vertex="1" parent="1">
          <mxGeometry x="468.25" y="305" width="30" height="20" as="geometry" />
        </mxCell>
        <mxCell id="_g5wlI9feMP86QzPln-b-62" value="" style="rounded=0;orthogonalLoop=1;jettySize=auto;html=1;endArrow=none;endFill=0;exitX=1;exitY=0.5;exitDx=0;exitDy=0;entryX=0.059;entryY=0.556;entryDx=0;entryDy=0;entryPerimeter=0;" edge="1" parent="1" target="_g5wlI9feMP86QzPln-b-46">
          <mxGeometry relative="1" as="geometry">
            <mxPoint x="138.25" y="159" as="sourcePoint" />
            <mxPoint x="185.25" y="230" as="targetPoint" />
            <Array as="points">
              <mxPoint x="158.25" y="159" />
              <mxPoint x="158" y="316" />
            </Array>
          </mxGeometry>
        </mxCell>
        <mxCell id="_g5wlI9feMP86QzPln-b-63" value="" style="rounded=0;orthogonalLoop=1;jettySize=auto;html=1;endArrow=none;endFill=0;exitX=1;exitY=0.5;exitDx=0;exitDy=0;entryX=0.075;entryY=0.56;entryDx=0;entryDy=0;entryPerimeter=0;" edge="1" parent="1" target="_g5wlI9feMP86QzPln-b-28">
          <mxGeometry relative="1" as="geometry">
            <mxPoint x="137.66" y="158" as="sourcePoint" />
            <mxPoint x="183.24999999999991" y="314.56000000000006" as="targetPoint" />
            <Array as="points">
              <mxPoint x="157.66" y="158" />
              <mxPoint x="157" y="416" />
            </Array>
          </mxGeometry>
        </mxCell>
        <mxCell id="_g5wlI9feMP86QzPln-b-64" value="v1.3 : vehicle" style="html=1;align=center;verticalAlign=top;rounded=1;absoluteArcSize=1;arcSize=10;dashed=0;" vertex="1" parent="1">
          <mxGeometry x="538.25" y="285" width="90" height="50" as="geometry" />
        </mxCell>
        <mxCell id="_g5wlI9feMP86QzPln-b-65" value="connV" style="html=1;" vertex="1" parent="1">
          <mxGeometry x="538.25" y="305" width="35" height="20" as="geometry" />
        </mxCell>
        <mxCell id="_g5wlI9feMP86QzPln-b-66" value="" style="rounded=0;orthogonalLoop=1;jettySize=auto;html=1;endArrow=none;endFill=0;exitX=1;exitY=0.5;exitDx=0;exitDy=0;" edge="1" parent="1" target="_g5wlI9feMP86QzPln-b-68">
          <mxGeometry relative="1" as="geometry">
            <mxPoint x="498.25" y="315" as="sourcePoint" />
          </mxGeometry>
        </mxCell>
        <mxCell id="_g5wlI9feMP86QzPln-b-67" value="" style="rounded=0;orthogonalLoop=1;jettySize=auto;html=1;endArrow=halfCircle;endFill=0;endSize=6;strokeWidth=1;" edge="1" parent="1" target="_g5wlI9feMP86QzPln-b-68">
          <mxGeometry relative="1" as="geometry">
            <mxPoint x="538.25" y="315" as="sourcePoint" />
            <mxPoint x="550.75" y="315" as="targetPoint" />
          </mxGeometry>
        </mxCell>
        <mxCell id="_g5wlI9feMP86QzPln-b-68" value="" style="ellipse;whiteSpace=wrap;html=1;fontFamily=Helvetica;fontSize=12;fontColor=#000000;align=center;strokeColor=#000000;fillColor=#ffffff;points=[];aspect=fixed;resizable=0;" vertex="1" parent="1">
          <mxGeometry x="510.75" y="310" width="10" height="10" as="geometry" />
        </mxCell>
        <mxCell id="_g5wlI9feMP86QzPln-b-69" value="next" style="html=1;" vertex="1" parent="1">
          <mxGeometry x="598.25" y="305" width="30" height="20" as="geometry" />
        </mxCell>
        <mxCell id="_g5wlI9feMP86QzPln-b-70" value="" style="rounded=0;orthogonalLoop=1;jettySize=auto;html=1;endArrow=none;endFill=0;exitX=1;exitY=0.5;exitDx=0;exitDy=0;entryX=0.128;entryY=0.445;entryDx=0;entryDy=0;entryPerimeter=0;" edge="1" parent="1" target="_g5wlI9feMP86QzPln-b-75">
          <mxGeometry relative="1" as="geometry">
            <mxPoint x="138.25" y="159" as="sourcePoint" />
            <mxPoint x="330" y="190" as="targetPoint" />
            <Array as="points">
              <mxPoint x="158.25" y="159" />
              <mxPoint x="158" y="190" />
            </Array>
          </mxGeometry>
        </mxCell>
        <mxCell id="_g5wlI9feMP86QzPln-b-71" value="connV" style="html=1;" vertex="1" parent="1">
          <mxGeometry x="345.75" y="170" width="50" height="20" as="geometry" />
        </mxCell>
        <mxCell id="_g5wlI9feMP86QzPln-b-72" value="v6 : vehicle" style="html=1;align=center;verticalAlign=top;rounded=1;absoluteArcSize=1;arcSize=10;dashed=0;" vertex="1" parent="1">
          <mxGeometry x="345.75" y="160" width="95" height="50" as="geometry" />
        </mxCell>
        <mxCell id="_g5wlI9feMP86QzPln-b-73" value="connV" style="html=1;" vertex="1" parent="1">
          <mxGeometry x="345.75" y="180" width="35" height="20" as="geometry" />
        </mxCell>
        <mxCell id="_g5wlI9feMP86QzPln-b-74" value="docks" style="html=1;" vertex="1" parent="1">
          <mxGeometry x="410.75" y="180" width="30" height="20" as="geometry" />
        </mxCell>
        <mxCell id="_g5wlI9feMP86QzPln-b-75" value="" style="ellipse;whiteSpace=wrap;html=1;fontFamily=Helvetica;fontSize=12;fontColor=#000000;align=center;strokeColor=#000000;fillColor=#ffffff;points=[];aspect=fixed;resizable=0;" vertex="1" parent="1">
          <mxGeometry x="315.75" y="185" width="10" height="10" as="geometry" />
        </mxCell>
        <mxCell id="_g5wlI9feMP86QzPln-b-76" value="" style="rounded=0;orthogonalLoop=1;jettySize=auto;html=1;endArrow=halfCircle;endFill=0;endSize=6;strokeWidth=1;exitX=0;exitY=0.5;exitDx=0;exitDy=0;" edge="1" parent="1" source="_g5wlI9feMP86QzPln-b-73" target="_g5wlI9feMP86QzPln-b-75">
          <mxGeometry relative="1" as="geometry">
            <mxPoint x="345.75" y="190" as="sourcePoint" />
            <mxPoint x="320.75" y="190" as="targetPoint" />
            <Array as="points" />
          </mxGeometry>
        </mxCell>
        <mxCell id="_g5wlI9feMP86QzPln-b-77" value="docks" style="html=1;" vertex="1" parent="1">
          <mxGeometry x="400" y="180" width="40.75" height="20" as="geometry" />
        </mxCell>
        <mxCell id="_g5wlI9feMP86QzPln-b-78" value="connV" style="html=1;" vertex="1" parent="1">
          <mxGeometry x="490.75" y="170" width="50" height="20" as="geometry" />
        </mxCell>
        <mxCell id="_g5wlI9feMP86QzPln-b-79" value="s : station" style="html=1;align=center;verticalAlign=top;rounded=1;absoluteArcSize=1;arcSize=10;dashed=0;" vertex="1" parent="1">
          <mxGeometry x="490.75" y="160" width="95" height="50" as="geometry" />
        </mxCell>
        <mxCell id="_g5wlI9feMP86QzPln-b-80" value="refill" style="html=1;" vertex="1" parent="1">
          <mxGeometry x="490.75" y="180" width="35" height="20" as="geometry" />
        </mxCell>
        <mxCell id="_g5wlI9feMP86QzPln-b-82" value="" style="ellipse;whiteSpace=wrap;html=1;fontFamily=Helvetica;fontSize=12;fontColor=#000000;align=center;strokeColor=#000000;fillColor=#ffffff;points=[];aspect=fixed;resizable=0;" vertex="1" parent="1">
          <mxGeometry x="460.75" y="185" width="10" height="10" as="geometry" />
        </mxCell>
        <mxCell id="_g5wlI9feMP86QzPln-b-83" value="" style="rounded=0;orthogonalLoop=1;jettySize=auto;html=1;endArrow=halfCircle;endFill=0;endSize=6;strokeWidth=1;exitX=0;exitY=0.5;exitDx=0;exitDy=0;" edge="1" parent="1" source="_g5wlI9feMP86QzPln-b-80" target="_g5wlI9feMP86QzPln-b-82">
          <mxGeometry relative="1" as="geometry">
            <mxPoint x="490.75" y="190" as="sourcePoint" />
            <mxPoint x="465.75" y="190" as="targetPoint" />
            <Array as="points" />
          </mxGeometry>
        </mxCell>
        <mxCell id="_g5wlI9feMP86QzPln-b-85" value="" style="endArrow=none;html=1;exitX=1;exitY=0.5;exitDx=0;exitDy=0;entryX=0.028;entryY=0.499;entryDx=0;entryDy=0;entryPerimeter=0;" edge="1" parent="1" source="_g5wlI9feMP86QzPln-b-77" target="_g5wlI9feMP86QzPln-b-82">
          <mxGeometry width="50" height="50" relative="1" as="geometry">
            <mxPoint x="390" y="260" as="sourcePoint" />
            <mxPoint x="470" y="190" as="targetPoint" />
          </mxGeometry>
        </mxCell>
        <mxCell id="_g5wlI9feMP86QzPln-b-87" value="" style="endArrow=none;html=1;entryX=0;entryY=0.5;entryDx=0;entryDy=0;exitX=1;exitY=0.5;exitDx=0;exitDy=0;" edge="1" parent="1" source="_g5wlI9feMP86QzPln-b-54" target="_g5wlI9feMP86QzPln-b-48">
          <mxGeometry width="50" height="50" relative="1" as="geometry">
            <mxPoint x="251" y="318" as="sourcePoint" />
            <mxPoint x="310" y="260" as="targetPoint" />
          </mxGeometry>
        </mxCell>
      </root>
    </mxGraphModel>
  </diagram>
</mxfile>
